<?xml version="1.0" encoding="UTF-8" standalone="no"?>
<svg
   xmlns:dc="http://purl.org/dc/elements/1.1/"
   xmlns:cc="http://creativecommons.org/ns#"
   xmlns:rdf="http://www.w3.org/1999/02/22-rdf-syntax-ns#"
   xmlns:svg="http://www.w3.org/2000/svg"
   xmlns="http://www.w3.org/2000/svg"
   height="100"
   width="100"
   xml:space="preserve"
   enable-background="new 0 0 100 100"
   viewBox="0 0 100 100"
   y="0px"
   x="0px"
   version="1.1">
   <g>
    <path fill="#fff" d="M 80.845,5 19.155,5 C 12.1,5 6.359,10.74 6.359,17.795 l 0,64.409 C 6.359,89.26 12.1,95 19.155,95 l 61.689,0 C 87.9,95 93.64,89.26 93.64,82.204 l 0,-64.409 C 93.641,10.74 87.9,5 80.845,5 Z m -12.699,5.631 c 4.952,0 8.98,4.027 8.98,8.976 l 0,48.083 c 0,4.952 -4.028,8.98 -8.98,8.98 l -37.199,0 c -4.949,0 -8.976,-4.028 -8.976,-8.98 l 0,-48.083 c 0,-4.949 4.027,-8.976 8.976,-8.976 l 37.199,0 z M 8.359,17.795 C 8.359,11.843 13.203,7 19.155,7 l 54.554,0 -5.703,1.631 -37.059,0 c -6.052,0 -10.976,4.924 -10.976,10.976 l 0,47.687 -11.612,12.382 0,-61.881 z" />

    <text
     y="65.26416"
     x="28.560791"
     style="font-style:normal;font-variant:normal;font-weight:normal;font-stretch:normal;font-size:65px;line-height:125%;font-family:Arial;-inkscape-font-specification:'Arial, Normal';text-align:start;letter-spacing:0px;word-spacing:0px;writing-mode:lr-tb;text-anchor:start;fill:#000000;fill-opacity:1;stroke:none;stroke-width:1px;stroke-linecap:butt;stroke-linejoin:miter;stroke-opacity:1"
     xml:space="preserve">
      <tspan fill="#fff" y="65.26416" x="28.560791">S</tspan>
    </text>
   </g>
</svg>