<?xml version="1.0" encoding="UTF-8" standalone="no"?>
<svg
   xmlns:dc="http://purl.org/dc/elements/1.1/"
   xmlns:cc="http://creativecommons.org/ns#"
   xmlns:rdf="http://www.w3.org/1999/02/22-rdf-syntax-ns#"
   xmlns:svg="http://www.w3.org/2000/svg"
   xmlns="http://www.w3.org/2000/svg"
   xmlns:sodipodi="http://sodipodi.sourceforge.net/DTD/sodipodi-0.dtd"
   xmlns:inkscape="http://www.inkscape.org/namespaces/inkscape"
   version="1.1"
   x="0px"
   y="0px"
   viewBox="0 0 100 100"
   enable-background="new 0 0 100 100"
   id="svg2"
   inkscape:version="0.91 r13725"
   sodipodi:docname="bottom.svg"
   width="100"
   height="100">
  <metadata
     id="metadata24">
    <rdf:RDF>
      <cc:Work
         rdf:about="">
        <dc:format>image/svg+xml</dc:format>
        <dc:type
           rdf:resource="http://purl.org/dc/dcmitype/StillImage" />
        <dc:title />
      </cc:Work>
    </rdf:RDF>
  </metadata>
  <defs
     id="defs22" />
  <sodipodi:namedview
     pagecolor="#ffffff"
     bordercolor="#666666"
     borderopacity="1"
     objecttolerance="10"
     gridtolerance="10"
     guidetolerance="10"
     inkscape:pageopacity="0"
     inkscape:pageshadow="2"
     inkscape:window-width="1539"
     inkscape:window-height="876"
     id="namedview20"
     showgrid="false"
     inkscape:zoom="2.0745104"
     inkscape:cx="26.724977"
     inkscape:cy="37.048912"
     inkscape:window-x="1427"
     inkscape:window-y="24"
     inkscape:window-maximized="1"
     inkscape:current-layer="g4" />
  <g
     id="g4"
     style="fill:#ffffff;fill-opacity:1"
     transform="matrix(1.0880197,0,0,1.0880197,-5.0862524,-22.462602)">
    <path
       d="m 60.358469,65.090088 -19.457277,0 c -2.527089,0 -4.582804,-2.055715 -4.582804,-4.582804 l 0,-19.457277 c 0,-2.527089 2.055715,-4.582804 4.582804,-4.582804 l 19.457277,0 c 2.52709,0 4.582805,2.055715 4.582805,4.582804 l 0,19.457277 c 0,2.527089 -2.055715,4.582804 -4.582805,4.582804 z M 40.901192,37.776576 c -1.804315,0 -3.273431,1.469116 -3.273431,3.273431 l 0,19.457277 c 0,1.804316 1.469116,3.273432 3.273431,3.273432 l 19.457277,0 c 1.805625,0 3.273432,-1.469116 3.273432,-3.273432 l 0,-19.457277 c 0,-1.804315 -1.467807,-3.273431 -3.273432,-3.273431 l -19.457277,0 z"
       id="path6"
       inkscape:connector-curvature="0"
       style="fill:#ffffff;fill-opacity:1" />
    <path
       d="m 49.126671,52.698186 c -0.720155,0 -1.060592,-0.534224 -0.755508,-1.186292 l 1.702184,-3.646602 c 0.305084,-0.653377 0.803955,-0.653377 1.109039,0 l 1.703494,3.647912 c 0.305084,0.652067 -0.03404,1.186291 -0.754199,1.186291 l -3.00501,0 z"
       id="path8"
       inkscape:connector-curvature="0"
       style="fill:#ffffff;fill-opacity:1" />
    <path
       d="m 60.358469,68.11212 -19.457277,0 c -2.527089,0 -4.582804,2.055715 -4.582804,4.582805 l 0,19.455967 c 0,2.52709 2.055715,4.582805 4.582804,4.582805 l 19.457277,0 c 2.52709,0 4.582805,-2.055715 4.582805,-4.582805 l 0,-19.455967 c 0,-2.52709 -2.055715,-4.582805 -4.582805,-4.582805 z m -7.46997,13.578195 -1.703494,3.646602 c -0.305084,0.652068 -0.803955,0.652068 -1.109039,0 l -1.703494,-3.646602 c -0.305083,-0.652068 0.03535,-1.186292 0.755508,-1.186292 l 3.005011,0 c 0.718845,0 1.059282,0.534224 0.755508,1.186292 z"
       id="path10"
       inkscape:connector-curvature="0"
       style="fill:#ffffff;fill-opacity:1" />
    <path
       d="m 28.714861,96.325172 -19.4572773,0 c -2.527089,0 -4.582804,-2.055715 -4.582804,-4.582804 l 0,-19.455968 c 0,-2.527089 2.055715,-4.582804 4.582804,-4.582804 l 19.4572773,0 c 2.527089,0 4.582804,2.055715 4.582804,4.582804 l 0,19.455968 c 0,2.527089 -2.055715,4.582804 -4.582804,4.582804 z M 9.2575837,69.011659 c -1.804315,0 -3.273431,1.469117 -3.273431,3.273432 l 0,19.457277 c 0,1.805625 1.469116,3.273432 3.273431,3.273432 l 19.4572773,0 c 1.804316,0 3.273432,-1.467807 3.273432,-3.273432 l 0,-19.455968 c 0,-1.805624 -1.469116,-3.273431 -3.273432,-3.273431 l -19.4572773,0 z"
       id="path12"
       inkscape:connector-curvature="0"
       style="fill:#ffffff;fill-opacity:1" />
    <path
       d="m 21.142759,83.516889 c 0,0.720155 -0.534224,1.060592 -1.186291,0.755508 l -3.646603,-1.704803 c -0.653377,-0.303774 -0.653377,-0.802645 0,-1.107729 l 3.646603,-1.704803 c 0.653377,-0.303775 1.186291,0.03535 1.186291,0.755508 l 0,3.006319 z"
       id="path14"
       inkscape:connector-curvature="0"
       style="fill:#ffffff;fill-opacity:1" />
    <path
       d="m 92.00208,96.325172 -19.45728,0 c -2.527089,0 -4.582804,-2.055715 -4.582804,-4.582804 l 0,-19.455968 c 0,-2.527089 2.055715,-4.582804 4.582804,-4.582804 l 19.45728,0 c 2.52709,0 4.5828,2.055715 4.5828,4.582804 l 0,19.455968 c 0,2.527089 -2.05571,4.582804 -4.5828,4.582804 z M 72.5448,69.011659 c -1.805624,0 -3.273431,1.469117 -3.273431,3.273432 l 0,19.457277 c 0,1.805625 1.467807,3.273432 3.273431,3.273432 l 19.45728,0 c 1.80562,0 3.27343,-1.467807 3.27343,-3.273432 l 0,-19.455968 c 0,-1.805624 -1.46781,-3.273431 -3.27343,-3.273431 l -19.45728,0 z"
       id="path16"
       inkscape:connector-curvature="0"
       style="fill:#ffffff;fill-opacity:1" />
    <path
       d="m 80.116902,80.51057 c 0,-0.720155 0.534224,-1.060592 1.186292,-0.755508 l 3.646603,1.704803 c 0.652067,0.303774 0.652067,0.802645 0,1.107729 l -3.646603,1.704803 c -0.652068,0.303775 -1.186292,-0.03535 -1.186292,-0.755508 l 0,-3.006319 z"
       id="path18"
       inkscape:connector-curvature="0"
       style="fill:#ffffff;fill-opacity:1" />
  </g>
</svg>
