<?xml version="1.0" encoding="UTF-8" standalone="no"?>
<svg
   xmlns:dc="http://purl.org/dc/elements/1.1/"
   xmlns:cc="http://creativecommons.org/ns#"
   xmlns:rdf="http://www.w3.org/1999/02/22-rdf-syntax-ns#"
   xmlns:svg="http://www.w3.org/2000/svg"
   xmlns="http://www.w3.org/2000/svg"
   version="1.1"
   id="Layer_1"
   x="0px"
   y="0px"
   width="100px"
   height="100px"
   viewBox="0 0 100 100"
   enable-background="new 0 0 100 100"
   xml:space="preserve">
   <g transform="matrix(1.9312249,0,0,1.9403047,-46.325638,-40.792966)">
      <path d="m 74.579,63.436 0,0 C 64.028,49.62 71.972,28.419 54.432,25.458 c -0.035,-2.515 -2.07,-4.434 -4.582,-4.434 -2.453,0 -4.477,1.919 -4.552,4.434 C 27.781,28.419 35.72,49.62 25.189,63.436 l 0,0 c -0.51,0.551 -0.807,1.184 -0.807,1.925 0,6.436 22.887,6.624 25.48,6.624 2.641,0 25.512,-0.188 25.512,-6.624 0.001,-0.742 -0.282,-1.375 -0.795,-1.925 z M 49.85,23.006 c 1.312,0 2.339,0.938 2.551,2.164 -0.812,-0.066 -1.636,-0.116 -2.551,-0.116 -0.854,0 -1.696,0.05 -2.483,0.116 0.195,-1.226 1.24,-2.164 2.483,-2.164 z m 0.013,45.897 c -13.185,0 -21.189,-2.2 -22.358,-3.543 1.168,-1.374 9.173,-3.574 22.358,-3.574 13.224,0 21.246,2.2 22.398,3.574 -1.153,1.343 -9.174,3.543 -22.398,3.543 z"
         style="fill:#f7f8f9" />
      <path
         d="m 73.727,66.977 c 0,2.946 -10.675,5.327 -23.846,5.327 -13.165,0 -23.853,-2.381 -23.853,-5.327 0,-2.913 10.688,-5.286 23.853,-5.286 13.171,-0.001 23.846,2.372 23.846,5.286 z"
         style="fill:#939298;stroke:#dddedf;stroke-width:0.5165931" />
  </g>
</svg>