<?xml version="1.0" encoding="UTF-8" standalone="no"?>
<svg
   xmlns:dc="http://purl.org/dc/elements/1.1/"
   xmlns:cc="http://creativecommons.org/ns#"
   xmlns:rdf="http://www.w3.org/1999/02/22-rdf-syntax-ns#"
   xmlns:svg="http://www.w3.org/2000/svg"
   xmlns="http://www.w3.org/2000/svg"
   xmlns:sodipodi="http://sodipodi.sourceforge.net/DTD/sodipodi-0.dtd"
   xmlns:inkscape="http://www.inkscape.org/namespaces/inkscape"
   version="1.1"
   x="0px"
   y="0px"
   viewBox="0 0 100 100"
   enable-background="new 0 0 100 100"
   id="svg2"
   inkscape:version="0.91 r13725"
   sodipodi:docname="left.svg"
   width="100"
   height="100">
  <metadata
     id="metadata24">
    <rdf:RDF>
      <cc:Work
         rdf:about="">
        <dc:format>image/svg+xml</dc:format>
        <dc:type
           rdf:resource="http://purl.org/dc/dcmitype/StillImage" />
        <dc:title></dc:title>
      </cc:Work>
    </rdf:RDF>
  </metadata>
  <defs
     id="defs22" />
  <sodipodi:namedview
     pagecolor="#ffffff"
     bordercolor="#666666"
     borderopacity="1"
     objecttolerance="10"
     gridtolerance="10"
     guidetolerance="10"
     inkscape:pageopacity="0"
     inkscape:pageshadow="2"
     inkscape:window-width="1539"
     inkscape:window-height="876"
     id="namedview20"
     showgrid="false"
     inkscape:zoom="5.597625"
     inkscape:cx="49.821353"
     inkscape:cy="62.5"
     inkscape:window-x="1427"
     inkscape:window-y="24"
     inkscape:window-maximized="1"
     inkscape:current-layer="svg2" />
  <g
     id="g4"
     transform="matrix(1.4246232,0,0,1.4246232,-21.751147,-17.38254)"
     style="fill:#ffffff;fill-opacity:1">
    <path
       d="m 57.795,46.145 -14.86,0 c -1.93,0 -3.5,-1.57 -3.5,-3.5 l 0,-14.86 c 0,-1.93 1.57,-3.5 3.5,-3.5 l 14.86,0 c 1.93,0 3.5,1.57 3.5,3.5 l 0,14.86 c 0,1.93 -1.57,3.5 -3.5,3.5 z m -14.86,-20.86 c -1.378,0 -2.5,1.122 -2.5,2.5 l 0,14.86 c 0,1.378 1.122,2.5 2.5,2.5 l 14.86,0 c 1.379,0 2.5,-1.122 2.5,-2.5 l 0,-14.86 c 0,-1.378 -1.121,-2.5 -2.5,-2.5 l -14.86,0 z"
       id="path6"
       inkscape:connector-curvature="0"
       style="fill:#ffffff;fill-opacity:1" />
    <path
       d="m 49.217,36.681 c -0.55,0 -0.81,-0.408 -0.577,-0.906 l 1.3,-2.785 c 0.233,-0.499 0.614,-0.499 0.847,0 l 1.301,2.786 c 0.233,0.498 -0.026,0.906 -0.576,0.906 l -2.295,0 z"
       id="path8"
       inkscape:connector-curvature="0"
       style="fill:#ffffff;fill-opacity:1" />
    <path
       d="m 57.795,70.312 -14.86,0 c -1.93,0 -3.5,-1.57 -3.5,-3.5 l 0,-14.859 c 0,-1.93 1.57,-3.5 3.5,-3.5 l 14.86,0 c 1.93,0 3.5,1.57 3.5,3.5 l 0,14.859 c 0,1.93 -1.57,3.5 -3.5,3.5 z M 42.935,49.453 c -1.378,0 -2.5,1.122 -2.5,2.5 l 0,14.859 c 0,1.379 1.122,2.5 2.5,2.5 l 14.86,0 c 1.379,0 2.5,-1.121 2.5,-2.5 l 0,-14.859 c 0,-1.379 -1.121,-2.5 -2.5,-2.5 l -14.86,0 z"
       id="path10"
       inkscape:connector-curvature="0"
       style="fill:#ffffff;fill-opacity:1" />
    <path
       d="m 51.513,57.917 c 0.55,0 0.81,0.408 0.577,0.906 l -1.301,2.785 c -0.233,0.498 -0.614,0.498 -0.847,0 l -1.301,-2.785 c -0.233,-0.498 0.027,-0.906 0.577,-0.906 l 2.295,0 z"
       id="path12"
       inkscape:connector-curvature="0"
       style="fill:#ffffff;fill-opacity:1" />
    <path
       d="m 33.628,48.14 -14.86,0 c -1.93,0 -3.5,1.57 -3.5,3.5 l 0,14.86 c 0,1.93 1.57,3.5 3.5,3.5 l 14.86,0 c 1.93,0 3.5,-1.57 3.5,-3.5 l 0,-14.859 c 0,-1.931 -1.57,-3.501 -3.5,-3.501 z m -5.783,12.078 c 0,0.55 -0.408,0.81 -0.906,0.577 l -2.785,-1.302 c -0.499,-0.232 -0.499,-0.613 0,-0.846 l 2.785,-1.302 c 0.499,-0.232 0.906,0.027 0.906,0.577 l 0,2.296 z"
       id="path14"
       inkscape:connector-curvature="0"
       style="fill:#ffffff;fill-opacity:1" />
    <path
       d="m 81.962,70 -14.86,0 c -1.93,0 -3.5,-1.57 -3.5,-3.5 l 0,-14.859 c 0,-1.93 1.57,-3.5 3.5,-3.5 l 14.86,0 c 1.93,0 3.5,1.57 3.5,3.5 l 0,14.859 c 0,1.93 -1.57,3.5 -3.5,3.5 z M 67.102,49.14 c -1.379,0 -2.5,1.122 -2.5,2.5 l 0,14.86 c 0,1.379 1.121,2.5 2.5,2.5 l 14.86,0 c 1.379,0 2.5,-1.121 2.5,-2.5 l 0,-14.859 c 0,-1.379 -1.121,-2.5 -2.5,-2.5 l -14.86,0 z"
       id="path16"
       inkscape:connector-curvature="0"
       style="fill:#ffffff;fill-opacity:1" />
    <path
       d="m 72.885,57.922 c 0,-0.55 0.408,-0.81 0.906,-0.577 l 2.785,1.302 c 0.498,0.232 0.498,0.613 0,0.846 l -2.785,1.302 c -0.498,0.232 -0.906,-0.027 -0.906,-0.577 l 0,-2.296 z"
       id="path18"
       inkscape:connector-curvature="0"
       style="fill:#ffffff;fill-opacity:1" />
  </g>
</svg>
